<svg width="7" height="8" viewBox="0 0 7 8" fill="none" xmlns="http://www.w3.org/2000/svg">
<path d="M3.54831 3.85272C3.3642 3.85272 3.18764 3.77958 3.05745 3.6494C2.92727 3.51921 2.85413 3.34265 2.85413 3.15854C2.85413 2.97443 2.92727 2.79786 3.05745 2.66768C3.18764 2.5375 3.3642 2.46436 3.54831 2.46436C3.73242 2.46436 3.90898 2.5375 4.03917 2.66768C4.16935 2.79786 4.24249 2.97443 4.24249 3.15854C4.24249 3.2497 4.22453 3.33997 4.18964 3.42419C4.15476 3.50841 4.10363 3.58493 4.03917 3.6494C3.97471 3.71386 3.89818 3.76499 3.81396 3.79987C3.72974 3.83476 3.63947 3.85272 3.54831 3.85272ZM3.54831 1.21484C3.03281 1.21484 2.53842 1.41963 2.17391 1.78414C1.8094 2.14865 1.60461 2.64304 1.60461 3.15854C1.60461 4.61631 3.54831 6.76826 3.54831 6.76826C3.54831 6.76826 5.492 4.61631 5.492 3.15854C5.492 2.64304 5.28722 2.14865 4.92271 1.78414C4.55819 1.41963 4.06381 1.21484 3.54831 1.21484Z" fill="white"/>
</svg>
